<?xml version="1.0" encoding="utf-8"?>
<svg viewBox="0 0 500 500" xmlns="http://www.w3.org/2000/svg">
  <path d="M 426.005 239.886 L 421.815 239.886 L 421.815 254.912 L 409.708 239.886 L 404.739 239.886 L 404.739 260.114 L 408.929 260.114 L 408.929 245.088 L 421.034 260.114 L 426.005 260.114 L 426.005 239.886 Z M 385.304 239.886 L 380.681 239.886 L 370.742 260.112 L 375.365 260.112 L 376.608 257.512 C 377.127 256.415 377.937 255.922 379.151 255.922 L 386.664 255.922 L 385.768 254.015 C 385.219 252.83 384.323 252.282 382.995 252.282 L 379.153 252.282 L 382.995 244.307 L 390.622 260.112 L 395.246 260.112 L 385.304 239.886 Z M 361.261 239.886 L 356.926 239.886 L 356.926 260.112 L 361.261 260.112 L 361.261 239.886 Z M 347.367 239.886 L 342.744 239.886 L 335.405 255.548 L 328.065 239.886 L 323.442 239.886 L 333.093 260.114 L 337.716 260.114 L 347.367 239.886 Z M 313.961 239.886 L 309.626 239.886 L 309.626 260.112 L 313.961 260.112 L 313.961 239.886 Z M 298.377 246.621 C 298.377 243.211 296.065 239.888 291.095 239.888 L 278.237 239.888 L 278.237 260.114 L 282.572 260.114 L 282.572 243.528 L 290.461 243.528 C 292.889 243.528 294.043 244.714 294.043 246.621 C 294.043 248.556 292.887 249.741 290.461 249.741 L 287.105 249.741 C 285.584 249.741 284.73 250.596 284.73 252.116 L 284.73 253.384 L 287.137 253.384 C 288.264 253.384 289.102 253.76 289.796 254.655 L 294.072 260.116 L 299.388 260.116 L 293.436 252.546 C 296.615 251.82 298.376 249.739 298.376 246.621 L 298.377 246.621 Z" style="fill: #fff"/>
  <path d="M 248.107 254.299 C 249.145 253.351 250.974 251.577 251.655 250.782 C 251.965 250.43 251.945 249.991 251.945 249.991 C 251.945 249.991 251.965 249.551 251.655 249.2 C 250.974 248.405 249.145 246.631 248.107 245.682 C 247.682 245.286 247.579 245.037 247.579 244.55 L 247.579 239.173 C 247.579 238.917 247.823 238.805 248.029 238.985 C 250.345 241.129 255.503 246.241 257.232 248.221 C 258.058 249.098 257.982 249.991 257.982 249.991 C 257.982 249.991 258.058 250.882 257.232 251.761 C 255.501 253.741 250.343 258.853 248.029 260.997 C 247.823 261.177 247.579 261.064 247.579 260.809 L 247.579 255.432 C 247.581 254.943 247.682 254.696 248.107 254.299 L 248.107 254.299 Z M 245.061 254.295 C 244.023 253.347 242.194 251.573 241.513 250.778 C 241.203 250.426 241.223 249.987 241.223 249.987 C 241.223 249.987 241.203 249.547 241.513 249.196 C 242.194 248.401 244.023 246.627 245.061 245.678 C 245.486 245.282 245.589 245.032 245.589 244.546 L 245.589 239.152 C 245.589 238.936 245.335 238.801 245.139 238.983 C 242.823 241.127 237.665 246.238 235.936 248.219 C 235.108 249.096 235.186 249.989 235.186 249.989 C 235.186 249.989 235.11 250.88 235.936 251.759 C 237.667 253.739 242.825 258.851 245.139 260.995 C 245.345 261.175 245.589 261.062 245.589 260.807 L 245.589 255.429 C 245.589 254.939 245.486 254.69 245.061 254.295 L 245.061 254.295 Z M 226.084 251.546 C 228.412 253.948 241.006 266.938 243.366 268.812 C 244.19 269.472 245.251 269.957 246.581 269.957 C 247.914 269.957 248.975 269.472 249.796 268.812 C 252.157 266.938 264.75 253.947 267.078 251.546 C 267.268 251.327 267.097 250.984 266.81 250.984 C 265.648 250.984 262.952 250.98 261.327 250.98 C 260.755 250.98 260.585 251.08 260.225 251.466 C 259.866 251.853 258.075 253.774 258.075 253.774 C 255.798 256.228 250.245 261.649 248.216 263.357 C 247.454 263.999 246.591 263.979 246.579 263.979 C 246.566 263.979 245.704 263.999 244.942 263.357 C 242.912 261.647 237.359 256.226 235.082 253.774 C 235.082 253.774 233.292 251.853 232.932 251.466 C 232.572 251.08 232.403 250.98 231.831 250.98 C 230.208 250.98 227.51 250.984 226.347 250.984 C 226.065 250.984 225.893 251.327 226.083 251.546 L 226.084 251.546 Z M 267.081 248.454 C 264.753 246.052 252.159 233.062 249.799 231.188 C 248.976 230.528 247.915 230.043 246.584 230.043 C 245.252 230.043 244.191 230.528 243.37 231.188 C 241.009 233.062 228.413 246.053 226.085 248.454 C 225.894 248.673 226.066 249.016 226.352 249.016 C 227.515 249.016 230.211 249.02 231.836 249.02 C 232.408 249.02 232.578 248.92 232.937 248.534 C 233.297 248.147 235.088 246.226 235.088 246.226 C 237.364 243.771 242.917 238.351 244.947 236.643 C 245.709 236.001 246.572 236.021 246.584 236.021 C 246.596 236.021 247.459 236.001 248.221 236.643 C 250.251 238.353 255.804 243.773 258.08 246.226 C 258.08 246.226 259.871 248.147 260.231 248.534 C 260.59 248.92 260.76 249.02 261.332 249.02 C 262.955 249.02 265.653 249.016 266.816 249.016 C 267.102 249.018 267.272 248.673 267.081 248.454 L 267.081 248.454 Z" fill="#ffb100"/>
</svg>