<svg xmlns="http://www.w3.org/2000/svg" xml:space="preserve" width="256.49" height="306.088" viewBox="0 0 256.49 306.088"><g transform="matrix(0.13333333,0,0,-0.13333333,-0.41145866,317.34995) translate(37.500001,112.50359)"><path d="m 927.42284,50.42024 c -149.943,96.28594 -347.3951,284.01618 -497.4044,519.5775 -58.4431,91.77492 -112.6063,191.40881 -160.2116,294.23871 C 93.64944,1244.7161 17.67684,1650.4398 3.08594,1933.63 c 59.5257,45.1315 152.3503,94.5429 261.3914,138.8292 83.4205,33.8753 176.5458,65.4182 270.3023,85.8547 260.7731,56.8264 524.51536,56.8264 785.28956,0 93.7512,-20.4365 186.8818,-51.9794 270.3077,-85.8547 109.0411,-44.2863 201.8614,-93.6977 261.384,-138.8292 -14.5837,-283.1902 -90.5626,-688.9139 -266.7125,-1069.39355 -47.6139,-102.8299 -101.776,-202.46379 -160.218,-294.23871 C 1274.82,334.43642 1077.3669,146.70618 927.42284,50.42024 Z" style="fill:#fff;fill-opacity:1;fill-rule:evenodd;stroke:none;stroke-width:1.06997"/><path d="M 927.422,207.199 C 787.285,297.188 602.746,472.641 462.547,692.797 407.926,778.57 357.305,871.688 312.813,967.793 148.17598,1323.39 77.17188,1702.58 63.53518,1967.25 c 55.6328,42.18 142.38682,88.36 244.29682,129.75 77.965,31.66 165,61.14 252.625,80.24 243.719,53.11 490.213,53.11 733.933,0 87.62,-19.1 174.66,-48.58 252.63,-80.24 101.91,-41.39 188.66,-87.57 244.29,-129.75 -13.63,-264.67 -84.64,-643.86 -249.27,-999.457 C 1497.54,871.688 1446.92,778.57 1392.3,692.797 1252.1,472.641 1067.56,297.188 927.422,207.199 Z" style="fill:#fff;fill-opacity:1;fill-rule:evenodd;stroke:none"/><path d="m 294.258,1395.63 c 22.875,-40.47 122.187,-98.12 176.855,-110.88 3.102,79.58 123.606,96.25 239.364,96.24 L 927.422,294.781 1144.37,1380.99 c 115.76,0.01 236.26,-16.66 239.36,-96.24 54.67,12.76 153.98,70.41 176.86,110.88 -165.5,62.68 -438.63,70.7 -557.23,66.59 l -75.938,-91.01 -75.938,91.01 c -118.601,4.11 -391.734,-3.91 -557.226,-66.59" style="fill:#000;fill-opacity:1;fill-rule:evenodd;stroke:none"/><path d="M 305.469,878.516 C 238.668,1022.52 181.277,1164.35 136.02,1325.95 107.574,1427.52 85.3164,1523.2 68.7617,1619.2 50.2383,1726.63 33.5352,1831.31 26.9336,1951.51 L 3.08594,1933.63 C 3.78906,1833.59 21.75,1706.17 37.8672,1608.39 54.1602,1509.5 74.6836,1407.91 100.07,1312.62 134.477,1183.47 182.676,1019.47 257.617,853.09 338.012,674.602 437.289,501.188 556.27,352.047 666.836,213.453 794.953,96.0273 927.422,9.46094 1059.89,96.0273 1188.01,213.453 1298.57,352.047 c 118.98,149.141 218.27,322.555 298.66,501.043 74.94,166.38 123.14,330.38 157.55,459.53 25.38,95.29 45.9,196.88 62.2,295.77 16.11,97.78 34.07,225.2 34.78,325.24 l -23.85,17.88 c -6.6,-120.2 -23.3,-224.88 -41.82,-332.31 -16.56,-96 -38.82,-191.68 -67.26,-293.25 -45.26,-161.6 -102.65,-303.43 -169.45,-447.434 C 1473.62,715.176 1355.91,539.246 1234.03,405.234 1112.3,271.379 982.895,165.832 927.422,144.77 871.953,165.832 742.547,271.379 620.816,405.234 498.941,539.246 381.227,715.176 305.469,878.516" style="fill:#000;fill-opacity:1;fill-rule:evenodd;stroke:none"/><path d="m 217.465,1503.6 42.351,-58.04 c 160.75,52.62 351.403,77.97 552.692,83.67 76.074,2.15 153.754,2.15 229.832,0 201.29,-5.7 391.94,-31.05 552.69,-83.67 l 42.35,58.04 c -189.83,60.06 -391.31,80.09 -592.78,84.91 -77.944,1.87 -156.412,1.87 -234.354,0 -201.473,-4.82 -402.949,-24.85 -592.781,-84.91" style="fill:#000;fill-opacity:1;fill-rule:evenodd;stroke:none"/><path d="M 927.422,207.199 C 787.285,297.188 602.746,472.641 462.547,692.797 407.926,778.57 357.305,871.688 312.813,967.793 148.176,1323.39 77.1719,1702.58 63.5352,1967.25 c 55.6328,42.18 142.3868,88.36 244.2968,129.75 77.965,31.66 165,61.14 252.625,80.24 243.719,53.11 490.213,53.11 733.933,0 87.62,-19.1 174.66,-48.58 252.63,-80.24 101.91,-41.39 188.66,-87.57 244.29,-129.75 -13.63,-264.67 -84.64,-643.86 -249.27,-999.457 C 1497.54,871.688 1446.92,778.57 1392.3,692.797 1252.1,472.641 1067.56,297.188 927.422,207.199 Z M 557.168,2189.28 c -81.148,-18.2 -168.922,-45.92 -254.895,-80.53 -87.632,-35.27 -173.437,-77.83 -251.7652,-135.61 23.2344,-334.38 107.5392,-712 247.3402,-1007.62 45.851,-96.965 94.172,-190.36 152.05,-278.317 132.27,-201 289.625,-373.617 477.524,-493.551 187.898,119.934 345.258,292.551 477.528,493.551 57.88,87.957 106.19,181.352 152.05,278.317 139.8,295.62 224.11,673.24 247.34,1007.62 -78.33,57.78 -164.13,100.34 -251.77,135.61 -85.97,34.61 -173.75,62.33 -254.89,80.53 -242.88,54.45 -497.637,54.45 -740.512,0" style="fill:#000;fill-opacity:1;fill-rule:evenodd;stroke:none"/><path d="m 1469.46,1814.88 v 0 -119.54 h 38.09 v 79.6 h 138.62 v -79.6 h 38.04 v 119.32 l -214.75,0.22" style="fill:#000;fill-opacity:1;fill-rule:nonzero;stroke:none"/><path d="m 863.313,1852.93 v 0 h 135.992 c 20.465,5.91 35.545,21.32 39.735,38.63 H 825.18 v -116.33 h 176.8 v -40.92 H 865.137 c -20.153,-7.72 -35.055,-20.97 -39.231,-38.18 l -0.726,-1.6 h 214.84 v 119.4 H 863.313 v 39" style="fill:#000;fill-opacity:1;fill-rule:nonzero;stroke:none"/><path d="m 1324.33,1696.07 v 0 c 19.05,8.06 29.35,22.33 33.31,38.7 h -169.99 l 0.14,157.01 -38.1,-0.12 v -195.13 l 174.64,-0.46" style="fill:#000;fill-opacity:1;fill-rule:nonzero;stroke:none"/><path d="m 1502.64,1852.52 v 0 H 1650 c 20.63,7.72 35.18,21.45 39.35,38.9 h -227.31 c 4.09,-17.45 19.96,-31.18 40.6,-38.9" style="fill:#000;fill-opacity:1;fill-rule:nonzero;stroke:none"/><path d="m 527.18,1851.7 v 0 h 147.363 c 20.727,7.73 35.719,22.13 39.969,39.59 H 487.199 c 4.227,-17.46 19.332,-31.86 39.981,-39.59" style="fill:#000;fill-opacity:1;fill-rule:nonzero;stroke:none"/><path d="m 527.18,1694.84 v 0 h 147.363 c 20.727,7.65 35.719,22.2 39.969,39.56 H 487.199 c 4.227,-17.36 19.332,-31.91 39.981,-39.56" style="fill:#000;fill-opacity:1;fill-rule:nonzero;stroke:none"/><path d="m 143.934,1891.56 v 0 c 4.433,-17.26 19.425,-31.62 39.906,-39.31 h 61.996 l 3.184,-1.29 v -156.43 h 38.726 v 156.43 l 3.527,1.29 h 62.071 c 20.312,7.69 35.367,22.05 39.726,39.31 v 0.42 H 143.934 v -0.42" style="fill:#000;fill-opacity:1;fill-rule:nonzero;stroke:none"/><path d="m 527.18,1775.12 h 147.363 c 20.727,7.49 35.719,22.12 39.969,39.39 H 487.199 c 4.227,-17.27 19.332,-31.9 39.981,-39.39" style="fill:#000;fill-opacity:1;fill-rule:nonzero;stroke:none"/></g></svg>