<svg width="50" height="50" viewBox="0 0 50 50" fill="none" xmlns="http://www.w3.org/2000/svg">
<circle cx="25" cy="25" r="25" fill="#C6F54C" fill-opacity="0.15"/>
<path d="M25 16L27.0357 21.1615C27.2236 21.638 27.3175 21.8762 27.4614 22.0771C27.5889 22.2552 27.7448 22.4111 27.9229 22.5386C28.1238 22.6825 28.362 22.7764 28.8385 22.9643L34 25L28.8385 27.0357C28.362 27.2236 28.1238 27.3175 27.9229 27.4614C27.7448 27.5889 27.5889 27.7448 27.4614 27.9229C27.3175 28.1238 27.2236 28.362 27.0357 28.8385L25 34L22.9643 28.8385C22.7764 28.362 22.6825 28.1238 22.5386 27.9229C22.4111 27.7448 22.2552 27.5889 22.0771 27.4614C21.8762 27.3175 21.638 27.2236 21.1615 27.0357L16 25L21.1615 22.9643C21.638 22.7764 21.8762 22.6825 22.0771 22.5386C22.2552 22.4111 22.4111 22.2552 22.5386 22.0771C22.6825 21.8762 22.7764 21.638 22.9643 21.1615L25 16Z" stroke="#C6F54C" stroke-width="1.5" stroke-linecap="round" stroke-linejoin="round"/>
</svg>
