<svg width="50" height="50" viewBox="0 0 50 50" fill="none" xmlns="http://www.w3.org/2000/svg">
<circle cx="25" cy="25" r="25" fill="#C6F54C" fill-opacity="0.15"/>
<path d="M32.4003 31C32.7837 30.2499 33 29.4002 33 28.5C33 25.4624 30.5376 23 27.5 23C24.4624 23 22 25.4624 22 28.5C22 31.5376 24.4624 34 27.5 34H34C34 34 33 33 32.4143 31.0292M31.85 25C31.9484 24.5153 32 24.0137 32 23.5C32 19.3579 28.6421 16 24.5 16C20.3579 16 17 19.3579 17 23.5C17 24.3766 17.1504 25.2181 17.4268 26C18.501 29.0117 16 31 16 31H22.5" stroke="#C6F54C" stroke-width="1.5" stroke-linecap="round" stroke-linejoin="round"/>
</svg>
