<svg width="50" height="50" viewBox="0 0 50 50" fill="none" xmlns="http://www.w3.org/2000/svg">
<circle cx="25" cy="25" r="25" fill="#C6F54C" fill-opacity="0.15"/>
<path d="M22 16V22M19 18V22M16 20V22M34 29V20.2C34 19.0799 34 18.5198 33.782 18.092C33.5903 17.7157 33.2843 17.4097 32.908 17.218C32.4802 17 31.9201 17 30.8 17H26M16 29V26M35 29V29.8C35 30.9201 35 31.4802 34.782 31.908C34.5903 32.2843 34.2843 32.5903 33.908 32.782C33.4802 33 32.9201 33 31.8 33H18.2C17.0799 33 16.5198 33 16.092 32.782C15.7157 32.5903 15.4097 32.2843 15.218 31.908C15 31.4802 15 30.9201 15 29.8V29H21.3373C21.5819 29 21.7041 29 21.8192 29.0276C21.9213 29.0521 22.0188 29.0925 22.1083 29.1474C22.2092 29.2092 22.2957 29.2957 22.4686 29.4686L22.5314 29.5314C22.7043 29.7043 22.7908 29.7908 22.8917 29.8526C22.9812 29.9075 23.0787 29.9479 23.1808 29.9724C23.2959 30 23.4182 30 23.6627 30H26.3373C26.5818 30 26.7041 30 26.8192 29.9724C26.9213 29.9479 27.0188 29.9075 27.1083 29.8526C27.2092 29.7908 27.2957 29.7043 27.4686 29.5314L27.5314 29.4686C27.7043 29.2957 27.7908 29.2092 27.8917 29.1474C27.9812 29.0925 28.0787 29.0521 28.1808 29.0276C28.2959 29 28.4182 29 28.6627 29H35Z" stroke="#C6F54C" stroke-width="1.5" stroke-linecap="round" stroke-linejoin="round"/>
</svg>
