<svg width="50" height="50" viewBox="0 0 50 50" fill="none" xmlns="http://www.w3.org/2000/svg">
<circle cx="25" cy="25" r="25" fill="#C6F54C" fill-opacity="0.15"/>
<path d="M33 33L31.2678 31.2678M31.2678 31.2678C31.7202 30.8154 32 30.1904 32 29.5C32 28.1193 30.8807 27 29.5 27C28.1193 27 27 28.1193 27 29.5C27 30.8807 28.1193 32 29.5 32C30.1904 32 30.8154 31.7202 31.2678 31.2678ZM28.6 23H31.4C31.9601 23 32.2401 23 32.454 22.891C32.6422 22.7951 32.7951 22.6421 32.891 22.454C33 22.2401 33 21.96 33 21.4V18.6C33 18.0399 33 17.7599 32.891 17.546C32.7951 17.3579 32.6422 17.2049 32.454 17.109C32.2401 17 31.9601 17 31.4 17H28.6C28.0399 17 27.7599 17 27.546 17.109C27.3578 17.2049 27.2049 17.3579 27.109 17.546C27 17.7599 27 18.0399 27 18.6V21.4C27 21.96 27 22.2401 27.109 22.454C27.2049 22.6421 27.3578 22.7951 27.546 22.891C27.7599 23 28.0399 23 28.6 23ZM18.6 23H21.4C21.96 23 22.2401 23 22.454 22.891C22.6421 22.7951 22.7951 22.6421 22.891 22.454C23 22.2401 23 21.96 23 21.4V18.6C23 18.0399 23 17.7599 22.891 17.546C22.7951 17.3579 22.6421 17.2049 22.454 17.109C22.2401 17 21.96 17 21.4 17H18.6C18.0399 17 17.7599 17 17.546 17.109C17.3579 17.2049 17.2049 17.3579 17.109 17.546C17 17.7599 17 18.0399 17 18.6V21.4C17 21.96 17 22.2401 17.109 22.454C17.2049 22.6421 17.3579 22.7951 17.546 22.891C17.7599 23 18.0399 23 18.6 23ZM18.6 33H21.4C21.96 33 22.2401 33 22.454 32.891C22.6421 32.7951 22.7951 32.6422 22.891 32.454C23 32.2401 23 31.9601 23 31.4V28.6C23 28.0399 23 27.7599 22.891 27.546C22.7951 27.3578 22.6421 27.2049 22.454 27.109C22.2401 27 21.96 27 21.4 27H18.6C18.0399 27 17.7599 27 17.546 27.109C17.3579 27.2049 17.2049 27.3578 17.109 27.546C17 27.7599 17 28.0399 17 28.6V31.4C17 31.9601 17 32.2401 17.109 32.454C17.2049 32.6422 17.3579 32.7951 17.546 32.891C17.7599 33 18.0399 33 18.6 33Z" stroke="#C6F54C" stroke-width="1.5" stroke-linecap="round" stroke-linejoin="round"/>
</svg>
