<svg width="50" height="50" viewBox="0 0 50 50" fill="none" xmlns="http://www.w3.org/2000/svg">
<circle cx="25" cy="25" r="25" fill="#C6F54C" fill-opacity="0.15"/>
<path d="M21 18.0001C20.0117 18.0008 19.4936 18.0134 19.092 18.218C18.7157 18.4097 18.4097 18.7157 18.218 19.092C18 19.5198 18 20.0799 18 21.2V30.8C18 31.9201 18 32.4802 18.218 32.908C18.4097 33.2843 18.7157 33.5903 19.092 33.782C19.5198 34 20.0799 34 21.2 34H28.8C29.9201 34 30.4802 34 30.908 33.782C31.2843 33.5903 31.5903 33.2843 31.782 32.908C32 32.4802 32 31.9201 32 30.8V21.2C32 20.0799 32 19.5198 31.782 19.092C31.5903 18.7157 31.2843 18.4097 30.908 18.218C30.5064 18.0134 29.9884 18.0008 29 18.0001M21 18.0001V20H29V18.0001M21 18.0001V17.7071C21 17.2543 21.1799 16.8201 21.5 16.5C21.8201 16.1799 22.2544 16 22.7071 16H27.2929C27.7456 16 28.1799 16.1799 28.5 16.5C28.8201 16.8201 29 17.2543 29 17.7071V18.0001M28 25H25M28 29H25M22 25H22.01M22 29H22.01" stroke="#C6F54C" stroke-width="1.5" stroke-linecap="round" stroke-linejoin="round"/>
</svg>
