<svg width="50" height="50" viewBox="0 0 50 50" fill="none" xmlns="http://www.w3.org/2000/svg">
<circle cx="25" cy="25" r="25" fill="#C6F54C" fill-opacity="0.15"/>
<path d="M28 25C28 26.6569 26.6569 28 25 28C23.3431 28 22 26.6569 22 25C22 23.3431 23.3431 22 25 22C26.6569 22 28 23.3431 28 25Z" stroke="#C6F54C" stroke-width="1.5" stroke-linecap="round" stroke-linejoin="round"/>
<path d="M25.9046 16.0601C25.6988 16 25.4659 16 25 16C24.5341 16 24.3012 16 24.0954 16.0601C23.7942 16.1479 23.5281 16.3281 23.3346 16.5751C23.2024 16.7439 23.1159 16.9602 22.9429 17.3927C22.6942 18.0145 22.0039 18.3347 21.3686 18.123L20.7978 17.9328C20.3929 17.7978 20.1905 17.7304 19.992 17.7188C19.7004 17.7018 19.4102 17.7703 19.157 17.9159C18.9847 18.015 18.8338 18.1659 18.532 18.4677C18.2112 18.7885 18.0508 18.9488 17.949 19.1319C17.7993 19.4008 17.736 19.7093 17.7676 20.0155C17.7891 20.2239 17.8734 20.4345 18.0418 20.8557C18.3057 21.5152 18.0518 22.2688 17.4427 22.6343L17.1652 22.8009C16.7403 23.0558 16.5279 23.1833 16.3735 23.3588C16.237 23.5141 16.134 23.696 16.0711 23.893C16 24.1156 16 24.3658 16 24.8663C16 25.4589 16 25.7551 16.0946 26.0088C16.1782 26.2329 16.3142 26.4337 16.4912 26.5946C16.6916 26.7766 16.9639 26.8856 17.5087 27.1035C18.0653 27.3261 18.352 27.9441 18.1624 28.5129L17.9472 29.1584C17.7982 29.6054 17.7237 29.829 17.7169 30.0486C17.7087 30.3127 17.7705 30.5742 17.8959 30.8067C18.0002 31.0002 18.1668 31.1668 18.5 31.5C18.8332 31.8332 18.9999 31.9998 19.1933 32.1041C19.4258 32.2295 19.6873 32.2913 19.9514 32.2831C20.171 32.2763 20.3946 32.2018 20.8416 32.0528L21.3686 31.8771C22.0039 31.6654 22.6942 31.9855 22.9429 32.6073C23.1159 33.0398 23.2024 33.2561 23.3346 33.4249C23.5281 33.6719 23.7942 33.8521 24.0954 33.94C24.3012 34 24.5341 34 25 34C25.4659 34 25.6988 34 25.9046 33.94C26.2058 33.8521 26.4719 33.6719 26.6654 33.4249C26.7976 33.2561 26.8841 33.0398 27.0571 32.6073C27.3058 31.9855 27.9961 31.6654 28.6313 31.8773L29.1579 32.0529C29.605 32.2019 29.8286 32.2764 30.0482 32.2832C30.3123 32.2913 30.5738 32.2296 30.8063 32.1042C30.9997 31.9999 31.1664 31.8333 31.4996 31.5001C31.8328 31.1669 31.9994 31.0002 32.1037 30.8068C32.2291 30.5743 32.2908 30.3127 32.2827 30.0487C32.2759 29.8291 32.2014 29.6055 32.0524 29.1584L31.8374 28.5134C31.6477 27.9444 31.9344 27.3262 32.4913 27.1035C33.036 26.8856 33.3084 26.7766 33.5088 26.5946C33.6858 26.4337 33.8218 26.2329 33.9054 26.0088C34 25.7551 34 25.4589 34 24.8663C34 24.3658 34 24.1156 33.9289 23.893C33.866 23.696 33.763 23.5141 33.6265 23.3588C33.4721 23.1833 33.2597 23.0558 32.8348 22.8009L32.5569 22.6342C31.9478 22.2687 31.6939 21.5151 31.9578 20.8556C32.1262 20.4344 32.2105 20.2238 32.232 20.0154C32.2636 19.7093 32.2003 19.4008 32.0506 19.1318C31.9487 18.9488 31.7884 18.7884 31.4676 18.4676C31.1658 18.1658 31.0149 18.0149 30.8426 17.9158C30.5894 17.7702 30.2992 17.7017 30.0076 17.7187C29.8091 17.7303 29.6067 17.7978 29.2018 17.9327L28.6314 18.1229C27.9961 18.3346 27.3058 18.0145 27.0571 17.3927C26.8841 16.9602 26.7976 16.7439 26.6654 16.5751C26.4719 16.3281 26.2058 16.1479 25.9046 16.0601Z" stroke="#C6F54C" stroke-width="1.5" stroke-linecap="round" stroke-linejoin="round"/>
</svg>
